<mxfile host="app.diagrams.net" agent="Mozilla/5.0 (Windows NT 10.0; Win64; x64) AppleWebKit/537.36 (KHTML, like Gecko) Chrome/128.0.0.0 Safari/537.36" version="24.7.7">
  <diagram name="Page-1" id="-Fqy93Ca_q4n-pF0gZmk">
    <mxGraphModel dx="672" dy="771" grid="1" gridSize="10" guides="1" tooltips="1" connect="1" arrows="1" fold="1" page="1" pageScale="1" pageWidth="850" pageHeight="1100" math="0" shadow="0">
      <root>
        <mxCell id="0" />
        <mxCell id="1" parent="0" />
        <mxCell id="ngBiUThSGBoJejDsIsRN-1" value="&lt;h1&gt;&lt;b&gt;&lt;font style=&quot;font-size: 17px;&quot; face=&quot;Times New Roman&quot;&gt;Sistem Informasi Perpustakaan&lt;/font&gt;&lt;/b&gt;&lt;/h1&gt;" style="ellipse;whiteSpace=wrap;html=1;aspect=fixed;" vertex="1" parent="1">
          <mxGeometry x="350" y="550" width="140" height="140" as="geometry" />
        </mxCell>
        <mxCell id="ngBiUThSGBoJejDsIsRN-3" value="&lt;font style=&quot;font-size: 20px;&quot; face=&quot;Times New Roman&quot;&gt;Penerbit&lt;/font&gt;" style="rounded=1;whiteSpace=wrap;html=1;" vertex="1" parent="1">
          <mxGeometry x="365" y="800" width="120" height="60" as="geometry" />
        </mxCell>
        <mxCell id="ngBiUThSGBoJejDsIsRN-5" value="&lt;font style=&quot;font-size: 20px;&quot; face=&quot;Times New Roman&quot;&gt;Anggota&lt;/font&gt;" style="rounded=1;whiteSpace=wrap;html=1;" vertex="1" parent="1">
          <mxGeometry x="130" y="590" width="120" height="60" as="geometry" />
        </mxCell>
        <mxCell id="ngBiUThSGBoJejDsIsRN-6" value="&lt;font face=&quot;Times New Roman&quot; style=&quot;font-size: 20px;&quot;&gt;Petugas Perpustakaan&lt;/font&gt;" style="rounded=1;whiteSpace=wrap;html=1;" vertex="1" parent="1">
          <mxGeometry x="600" y="590" width="120" height="60" as="geometry" />
        </mxCell>
      </root>
    </mxGraphModel>
  </diagram>
</mxfile>
